inDegrees=no
num_controls=7
num_derivatives=13
num_iterations=89
num_multipliers=7
num_parameters=0
num_slacks=7
num_states=26
objective=0.334829
objective_accelerations=0.037216
objective_balance=0.001589
objective_effort=0.027442
objective_height=0.267089
objective_ligament=0.001492
solver_duration=930.840438
status=Solve_Succeeded
success=true
DataType=double
version=3
OpenSimVersion=4.5
endheader
time	/jointset/ground_pelvis/pelvis_tilt/value	/jointset/ground_pelvis/pelvis_tx/value	/jointset/ground_pelvis/pelvis_ty/value	/jointset/hip_r/hip_flexion_r/value	/jointset/hip_r/hip_adduction_r/value	/jointset/hip_r/hip_rotation_r/value	/jointset/back/lumbar_extension/value	/jointset/patellofemoral_r/patellar_flexion_r/value	/jointset/knee_r/knee_flexion_r/value	/jointset/knee_r/knee_adduction_r/value	/jointset/knee_r/knee_rotation_r/value	/jointset/ankle_r/ankle_angle_r/value	/jointset/subtalar_r/subtalar_angle_r/value	/jointset/ground_pelvis/pelvis_tilt/speed	/jointset/ground_pelvis/pelvis_tx/speed	/jointset/ground_pelvis/pelvis_ty/speed	/jointset/hip_r/hip_flexion_r/speed	/jointset/hip_r/hip_adduction_r/speed	/jointset/hip_r/hip_rotation_r/speed	/jointset/back/lumbar_extension/speed	/jointset/patellofemoral_r/patellar_flexion_r/speed	/jointset/knee_r/knee_flexion_r/speed	/jointset/knee_r/knee_adduction_r/speed	/jointset/knee_r/knee_rotation_r/speed	/jointset/ankle_r/ankle_angle_r/speed	/jointset/subtalar_r/subtalar_angle_r/speed	/forceset/tau_hip_flexion_r	/forceset/tau_hip_adduction_r	/forceset/tau_hip_rotation_r	/forceset/tau_knee_flexion_r	/forceset/tau_ankle_angle_r	/forceset/tau_subtalar_angle_r	/forceset/tau_lumbar_extension	lambda_cid13_p0	lambda_cid14_p0	lambda_cid14_p1	lambda_cid14_p2	lambda_cid14_p3	lambda_cid14_p4	lambda_cid14_p5	/jointset/ground_pelvis/pelvis_tilt/accel	/jointset/ground_pelvis/pelvis_tx/accel	/jointset/ground_pelvis/pelvis_ty/accel	/jointset/hip_r/hip_flexion_r/accel	/jointset/hip_r/hip_adduction_r/accel	/jointset/hip_r/hip_rotation_r/accel	/jointset/back/lumbar_extension/accel	/jointset/patellofemoral_r/patellar_flexion_r/accel	/jointset/knee_r/knee_flexion_r/accel	/jointset/knee_r/knee_adduction_r/accel	/jointset/knee_r/knee_rotation_r/accel	/jointset/ankle_r/ankle_angle_r/accel	/jointset/subtalar_r/subtalar_angle_r/accel	gamma_cid13_p0	gamma_cid14_p0	gamma_cid14_p1	gamma_cid14_p2	gamma_cid14_p3	gamma_cid14_p4	gamma_cid14_p5
1.5	-0.09252283884036953	0.03530473957393096	0.8159468090068747	0.8191192868779144	-0.2265187332026319	-0.1212467943284722	-0.6234225005620108	0.9433806732492068	0.9433806732492174	-0.03740245249210239	0.1745270996452384	0.3071775643657291	0.1380321569985569	0.4728761301932204	0.2313328805225383	0.5141293587553553	-2.044247934461303	0.0003624633332597953	-0.175583436360427	0.8061562966968353	-1.974806027708765	-1.974806027708774	0.4965769058351745	-9.098940890660197e-05	-0.5224166207877921	-0.2076579920076502	-0.1608767928095491	0.01219964818646479	0.0190616960904017	-0.3015940251732656	0.01056364001694134	-0.006744539515454228	0.2125013156294251	-8.971254390890117	-38.92299672872464	-9.308406790975036	1.40806667758422	-3.363808079409523	-628.3749194017357	56.49958523653687	0.1354688456235789	0.5747041435660137	-0.5392472711795188	-0.986479061565162	-0.2704272880407399	-0.6761275532725463	1.768136598523365	-1.357046094275712	-1.357046094275712	0.4689300261494158	-0.02062199967906025	-0.6853848896109184	-0.4689813407817728	1.668661661885262e-07	1.418463400555339e-07	-9.822624958264493e-07	1.49449762244663e-06	1.029580659800306e-08	3.262147660421081e-07	-7.516642941891391e-07
1.51	-0.08778763890394169	0.03764654277028191	0.8210600873030782	0.798629545631521	-0.2265295396159062	-0.1230359266251715	-0.6152740852129435	0.9235673459781898	0.9235673459781942	-0.03241149082587943	0.1745261374351073	0.3019196683412667	0.1359311187518543	0.4740922468639371	0.2369975525837305	0.5084152944760559	-2.053427066045206	-0.00253061563968232	-0.1822627604523479	0.8234105260693371	-1.987583100625708	-1.987583100625713	0.5015684588727123	-0.000100261617283374	-0.5290765900684609	-0.2125053068690666	-0.1536004456171865	0.01022106038930985	0.01912753650519845	-0.2975837234220051	0.01204383315431198	-0.007320401184331557	0.2057782007946913	-10.00932202022419	-38.14717670700309	-9.238280658089256	1.18627780599374	-3.412856291992218	-623.3948947689985	56.52097539224762	0.1039526736805323	0.5578173123023669	-0.6040720535660458	-0.8426262163376829	-0.2996200254596885	-0.666537276636271	1.686629049495246	-1.196619388647682	-1.196619388647157	0.5071200171036373	0.009357839841621019	-0.6433725184529578	-0.4859111116189385	1.569837914548908e-07	1.379832635759802e-07	-8.816973093505026e-07	1.473015997404817e-06	1.848748511289617e-09	3.249316498916913e-07	-7.141548023838223e-07
1.52	-0.08304242388163037	0.04004408640222606	0.8261129077470365	0.7780562138673813	-0.2265694511836176	-0.1248923926506867	-0.6069566149815749	0.9036345316783548	0.9036345316783526	-0.02737204321437054	0.1745251700371439	0.2965977587097657	0.1337829464459781	0.4748791473700484	0.242480967641178	0.502037788306321	-2.0609660380105	-0.005458567554175133	-0.1890501821236451	0.8399672731571073	-1.998703433472414	-1.998703433472415	0.5062740948921566	-9.202697531523683e-05	-0.5352193421954532	-0.2170848038423778	-0.146324098424823	0.008242472592156984	0.01919337691998812	-0.2935734216707454	0.01352402629168322	-0.007896262853205299	0.1990550859599581	-11.0518409467873	-37.37194493147789	-9.167067949154154	0.9629565461196344	-3.474921862390242	-618.4174757681135	56.60397566569927	0.04962561270246965	0.5384527428171123	-0.6719356492666887	-0.6584471378431335	-0.277401876350888	-0.6977470691478157	1.628640141577041	-1.025698080228135	-1.025698080228126	0.4117466225307117	-0.01712062961005396	-0.5819414588755885	-0.415417763160751	1.54316300103792e-07	1.300707024076322e-07	-9.365566799668096e-07	1.372971542790573e-06	1.300937301336167e-08	3.205331509845557e-07	-7.595109582149405e-07
1.53	-0.07829155995357223	0.04249546127592133	0.8310987011030317	0.7574158251512251	-0.226638745178594	-0.1268177380004911	-0.5984772849361615	0.8835987925669375	0.8835987925669403	-0.02228737262550382	0.1745246219741932	0.2912169917808028	0.1315904196362382	0.475215417401572	0.2477535066691046	0.4950164033496891	-2.066822437973555	-0.008405633904004251	-0.1960068534308504	0.8557579467893739	-2.008157445143906	-2.00815744514391	0.5106377337186533	-2.949953648271975e-05	-0.5408502253466407	-0.2213787758544879	-0.1389337278262809	0.006048255706590893	0.01929681053684624	-0.2898168000816477	0.01506292305443556	-0.008531809052032656	0.1922149921539685	-12.09453654664996	-36.60141191037813	-9.128558572094832	0.7516568145151129	-3.458903246162717	-613.6629159528443	56.70596924667269	0.01390326747215745	0.5155918447457745	-0.7328501107641842	-0.5058333785889898	-0.3040997158458694	-0.6925784033994542	1.533162603593775	-0.8622435586384879	-0.8622435586388641	0.4451664401366074	0.0163289025064932	-0.5410418880614632	-0.4301909199883209	1.593146223466384e-07	1.178555637574402e-07	-1.156554642493634e-06	1.189454081755622e-06	4.500316026601809e-08	3.128245578984066e-07	-8.929118646597697e-07
